<?xml version="1.0" encoding="utf-8"?>
<!-- Generator: Adobe Illustrator 27.5.0, SVG Export Plug-In . SVG Version: 6.00 Build 0)  -->
<svg version="1.1" id="Layer_1" xmlns="http://www.w3.org/2000/svg" xmlns:xlink="http://www.w3.org/1999/xlink" x="0px" y="0px"
	 viewBox="0 0 4000 4000" style="enable-background:new 0 0 4000 4000;" xml:space="preserve">
<g>
	<rect style="fill-rule:evenodd;clip-rule:evenodd;fill:#FEFEFE;" width="4000" height="4000"/>
	<g>
		<defs>
			<path id="SVGID_1_" d="M1995.797,1100.645c0,0-396.335,25.513-401.518,415.701c0,0,77.117-96.633,366.685-146.755
				C2250.532,1319.471,1995.797,1100.645,1995.797,1100.645"/>
		</defs>
		<clipPath id="SVGID_00000107552519978934123620000001919108038477837197_">
			<use xlink:href="#SVGID_1_"  style="overflow:visible;"/>
		</clipPath>
		
			<linearGradient id="SVGID_00000119804722126287523020000017375332998472040092_" gradientUnits="userSpaceOnUse" x1="2901.802" y1="1098.3165" x2="936.1327" y2="1520.1501">
			<stop  offset="0" style="stop-color:#E62129"/>
			<stop  offset="1" style="stop-color:#FFF000"/>
		</linearGradient>
		
			<rect x="1594.279" y="1100.645" style="clip-path:url(#SVGID_00000107552519978934123620000001919108038477837197_);fill:url(#SVGID_00000119804722126287523020000017375332998472040092_);" width="656.253" height="415.701"/>
	</g>
	<path style="opacity:0.28;fill-rule:evenodd;clip-rule:evenodd;fill:#A70C00;" d="M1594.279,1516.346
		c0,0,77.117-96.633,366.685-146.755c149.972-25.96,153.932-97.167,122.907-159.793c-18.965-1.063-41.353-0.567-67.844,1.862
		C1641.028,1246.034,1594.279,1516.346,1594.279,1516.346"/>
	<g>
		<defs>
			<path id="SVGID_00000091737656456199054570000014820120304137089711_" d="M1455.226,3186.632
				c212.5-25.002,806.248-31.247,1143.751-356.248c302.04-290.855,366.605-1330.753,193.148-1722.818
				c-230.212-520.37-882.01-298.841-831.161,262.025c109.838-12.719,382.03-10.695,341.646,257.376
				c-13.267,88.035-53.693,176.533-128.623,222.175C1358.366,2346.017,1455.226,3186.632,1455.226,3186.632"/>
		</defs>
		<clipPath id="SVGID_00000158009793811638920090000014153407463230421645_">
			<use xlink:href="#SVGID_00000091737656456199054570000014820120304137089711_"  style="overflow:visible;"/>
		</clipPath>
		
			<linearGradient id="SVGID_00000106832456449661070560000011470881141109225093_" gradientUnits="userSpaceOnUse" x1="1482.8513" y1="5411.8916" x2="2532.8484" y2="-38.1039">
			<stop  offset="0" style="stop-color:#E62129"/>
			<stop  offset="1" style="stop-color:#FFF000"/>
		</linearGradient>
		
			<rect x="1358.366" y="587.197" style="clip-path:url(#SVGID_00000158009793811638920090000014153407463230421645_);fill:url(#SVGID_00000106832456449661070560000011470881141109225093_);" width="1607.216" height="2599.435"/>
	</g>
	<g>
		<defs>
			<path id="SVGID_00000017495058776991099980000015183419295009483687_" d="M2482.67,1719.468
				c0,0-1203.229-243.756-1369.633,1118.748c0,0,710.418-37.497,857.621-62.498
				C2117.867,2750.716,2709.032,2544.467,2482.67,1719.468"/>
		</defs>
		<clipPath id="SVGID_00000111158394678137221780000008864014785825722508_">
			<use xlink:href="#SVGID_00000017495058776991099980000015183419295009483687_"  style="overflow:visible;"/>
		</clipPath>
		
			<linearGradient id="SVGID_00000087385819943983967040000017831270421234128048_" gradientUnits="userSpaceOnUse" x1="1996.3883" y1="4826.6411" x2="1883.8864" y2="1307.8048">
			<stop  offset="0" style="stop-color:#E62129"/>
			<stop  offset="1" style="stop-color:#FFF000"/>
		</linearGradient>
		
			<rect x="1113.038" y="1475.711" style="clip-path:url(#SVGID_00000111158394678137221780000008864014785825722508_);fill:url(#SVGID_00000087385819943983967040000017831270421234128048_);" width="1595.994" height="1362.504"/>
	</g>
	<path style="opacity:0.32;fill-rule:evenodd;clip-rule:evenodd;fill:#A70C00;" d="M1970.659,2775.717
		c-74.273,12.613-291.922,28.408-489.355,40.965c-13.757,67.607-21.453,129.198-25.53,181.895
		c282.293-25.743,754.109-63.278,947.801-347.84c253.123-371.877,104.106-827.055,104.106-827.055
		C2658.424,2562.074,2111.461,2751.802,1970.659,2775.717"/>
	<path style="opacity:0.32;fill-rule:evenodd;clip-rule:evenodd;fill:#A70C00;" d="M2284.047,1702.583
		c119.925,0.94,198.623,16.885,198.623,16.885s-81.51-30.242-187.468-54.713C2292.099,1677.533,2288.384,1690.189,2284.047,1702.583
		"/>
	<path style="opacity:0.32;fill-rule:evenodd;clip-rule:evenodd;fill:#A70C00;" d="M1960.964,1369.591
		c-9.208-101.575,4.63-192.023,34.833-268.947c0,0-21.667,1.395-54.935,8.518c-56.098,142.03-54.108,275.235-54.108,275.235
		C1909.784,1379.15,1934.484,1374.174,1960.964,1369.591"/>
	<path style="opacity:0.19;fill-rule:evenodd;clip-rule:evenodd;fill:#FEFEFE;" d="M2284.047,1702.583
		c-349.001-2.737-1047.164,121.582-1171.009,1135.633c0,0,39.368-2.078,101.49-5.578
		c77.735-156.255,202.893-362.892,389.017-552.221c74.405-75.687,157.44-130.05,242.442-168.648
		c329.127-149.47,687.6-62.65,687.6-62.64c-1.09-68.778-9.227-143.755-25.903-225.445c-6.86-33.59-15.16-68.32-25.012-104.215
		C2482.67,1719.468,2403.972,1703.523,2284.047,1702.583"/>
	<path style="opacity:0.19;fill-rule:evenodd;clip-rule:evenodd;fill:#FEFEFE;" d="M2284.047,1702.583
		c-306.77-2.405-883.241,93.462-1102.393,805.35c30.623-95.003,184.275-512.678,556.238-647.843
		c420.718-152.882,478.72,114.698,320.31,156.25c-158.41,41.552-435.16,94.432-715.243,590.966l-0.047,0.09
		c68.863-106.303,154.908-219.435,260.632-326.98c74.405-75.687,157.44-130.05,242.442-168.648
		c329.127-149.47,687.6-62.65,687.6-62.64c-1.09-68.778-9.227-143.755-25.903-225.445c-6.86-33.59-15.16-68.32-25.012-104.215
		C2482.67,1719.468,2403.972,1703.523,2284.047,1702.583"/>
	<path style="opacity:0.19;fill-rule:evenodd;clip-rule:evenodd;fill:#FEFEFE;" d="M2301.996,1192.918
		c274.998,0,558.813,190.612,555.963,949.993c54.28-383.773,32.368-813.381-65.833-1035.345
		c-188.518-426.126-659.75-354.747-796.328-6.922c-30.203,76.923-44.042,167.372-34.833,268.947c0,0,29.995-80.253,133.748-132.585
		C2144.899,1211.698,2212.341,1192.918,2301.996,1192.918"/>
	<path style="opacity:0.19;fill-rule:evenodd;clip-rule:evenodd;fill:#FEFEFE;" d="M2301.996,1192.918
		c171.16,0,345.718,73.885,452.467,312.747l0.033-0.01c0,0-72.865-244.007-313.489-314.32
		c-240.623-70.313-170.32-229.69-92.197-279.69c78.122-49.998,274.257-3.742,379.687,157.815
		c98.995,151.697,153.608,471.958,158.163,616.403c-3.317-231.548-34.818-443.32-94.535-578.296
		c-188.518-426.126-659.75-354.747-796.328-6.922c-30.203,76.923-44.042,167.372-34.833,268.947c0,0,29.995-80.253,133.748-132.585
		C2144.899,1211.698,2212.341,1192.918,2301.996,1192.918"/>
</g>
</svg>
